<svg width="512" height="512" viewBox="0 0 512 512" fill="none" xmlns="http://www.w3.org/2000/svg">
  <defs>
    <linearGradient id="leftGradient" x1="96" y1="128" x2="236" y2="392" gradientUnits="userSpaceOnUse">
      <stop stop-color="#64E7FF" />
      <stop offset="1" stop-color="#1C7CFF" />
    </linearGradient>
    <linearGradient id="rightGradient" x1="284" y1="128" x2="424" y2="392" gradientUnits="userSpaceOnUse">
      <stop stop-color="#FFB457" />
      <stop offset="1" stop-color="#F97316" />
    </linearGradient>
    <filter id="glow" x="0" y="0" width="512" height="512" filterUnits="userSpaceOnUse" color-interpolation-filters="sRGB">
      <feGaussianBlur stdDeviation="22" result="blur" />
      <feMerge>
        <feMergeNode in="blur" />
        <feMergeNode in="SourceGraphic" />
      </feMerge>
    </filter>
  </defs>
  <rect width="512" height="512" rx="120" fill="#09090B" />
  <circle cx="118" cy="118" r="96" fill="#64E7FF" fill-opacity="0.12" />
  <circle cx="394" cy="394" r="118" fill="#F97316" fill-opacity="0.12" />
  <g filter="url(#glow)">
    <g transform="rotate(-12 164 256)">
      <rect x="96" y="112" width="144" height="288" rx="40" fill="url(#leftGradient)" />
      <rect x="116" y="136" width="18" height="18" rx="4" fill="#08111B" fill-opacity="0.68" />
      <rect x="116" y="187" width="18" height="18" rx="4" fill="#08111B" fill-opacity="0.68" />
      <rect x="116" y="238" width="18" height="18" rx="4" fill="#08111B" fill-opacity="0.68" />
      <rect x="116" y="289" width="18" height="18" rx="4" fill="#08111B" fill-opacity="0.68" />
      <rect x="116" y="340" width="18" height="18" rx="4" fill="#08111B" fill-opacity="0.68" />
      <rect x="202" y="136" width="18" height="18" rx="4" fill="#08111B" fill-opacity="0.68" />
      <rect x="202" y="187" width="18" height="18" rx="4" fill="#08111B" fill-opacity="0.68" />
      <rect x="202" y="238" width="18" height="18" rx="4" fill="#08111B" fill-opacity="0.68" />
      <rect x="202" y="289" width="18" height="18" rx="4" fill="#08111B" fill-opacity="0.68" />
      <rect x="202" y="340" width="18" height="18" rx="4" fill="#08111B" fill-opacity="0.68" />
    </g>
    <g transform="rotate(12 348 256)">
      <rect x="272" y="112" width="144" height="288" rx="40" fill="url(#rightGradient)" />
      <rect x="292" y="136" width="18" height="18" rx="4" fill="#1B0E07" fill-opacity="0.62" />
      <rect x="292" y="187" width="18" height="18" rx="4" fill="#1B0E07" fill-opacity="0.62" />
      <rect x="292" y="238" width="18" height="18" rx="4" fill="#1B0E07" fill-opacity="0.62" />
      <rect x="292" y="289" width="18" height="18" rx="4" fill="#1B0E07" fill-opacity="0.62" />
      <rect x="292" y="340" width="18" height="18" rx="4" fill="#1B0E07" fill-opacity="0.62" />
      <rect x="378" y="136" width="18" height="18" rx="4" fill="#1B0E07" fill-opacity="0.62" />
      <rect x="378" y="187" width="18" height="18" rx="4" fill="#1B0E07" fill-opacity="0.62" />
      <rect x="378" y="238" width="18" height="18" rx="4" fill="#1B0E07" fill-opacity="0.62" />
      <rect x="378" y="289" width="18" height="18" rx="4" fill="#1B0E07" fill-opacity="0.62" />
      <rect x="378" y="340" width="18" height="18" rx="4" fill="#1B0E07" fill-opacity="0.62" />
    </g>
    <path d="M230 118L282 394" stroke="#FFE7C2" stroke-width="20" stroke-linecap="round" />
    <path d="M257 176L300 304" stroke="#0B1018" stroke-width="10" stroke-linecap="round" opacity="0.72" />
  </g>
</svg>
